<?xml version="1.0" standalone="no"?>
<!DOCTYPE svg PUBLIC "-//W3C//DTD SVG 20010904//EN"
 "http://www.w3.org/TR/2001/REC-SVG-20010904/DTD/svg10.dtd">
<svg version="1.0" xmlns="http://www.w3.org/2000/svg"
 width="1148.000000pt" height="1148.000000pt" viewBox="0 0 1148.000000 1148.000000"
 preserveAspectRatio="xMidYMid meet">

<g transform="translate(0.000000,1148.000000) scale(0.100000,-0.100000)"
fill="#000000" stroke="none">
<path d="M1135 10910 c-205 -29 -399 -165 -492 -345 -77 -149 -78 -156 -78
-625 0 -372 2 -422 18 -480 52 -181 179 -339 337 -418 160 -79 120 -76 903
-80 l698 -3 -4 703 c-3 639 -5 708 -21 763 -56 187 -177 334 -341 416 -144 71
-146 72 -575 75 -212 1 -412 -2 -445 -6z m810 -294 c28 -7 65 -21 84 -31 61
-31 137 -112 167 -178 l29 -62 3 -548 3 -548 -543 3 c-542 3 -543 3 -600 26
-81 33 -160 108 -200 190 l-33 67 0 405 0 405 29 62 c46 99 152 188 253 212
64 15 750 13 808 -3z"/>
<path d="M1390 10351 c-172 -9 -207 -25 -246 -116 -22 -52 -33 -448 -15 -536
14 -68 54 -119 115 -148 42 -19 69 -21 365 -27 236 -5 324 -4 334 4 10 9 12
23 6 59 -19 113 -21 337 -5 458 20 156 10 205 -54 259 -17 14 -48 30 -68 35
-53 14 -274 20 -432 12z"/>
<path d="M3296 10909 c-80 -19 -147 -75 -188 -158 -23 -45 -23 -51 -23 -391 0
-344 0 -345 24 -394 30 -61 76 -107 135 -136 57 -27 217 -39 285 -20 86 23
126 101 94 181 -25 64 -61 83 -170 87 l-93 4 0 279 0 279 279 0 c299 0 291 1
291 -50 0 -34 37 -105 76 -144 74 -74 99 -79 365 -84 261 -4 306 2 349 48 53
57 41 156 -24 203 -30 21 -41 22 -263 25 l-233 3 -6 27 c-3 15 -8 38 -10 52
-16 78 -113 168 -204 189 -56 13 -629 13 -684 0z"/>
<path d="M5702 10913 c-37 -7 -88 -66 -95 -109 -10 -60 20 -116 76 -143 44
-22 53 -22 354 -19 300 3 309 4 339 25 40 28 65 89 57 136 -7 46 -51 93 -99
106 -38 10 -581 14 -632 4z"/>
<path d="M8507 10913 c-37 -6 -92 -63 -101 -103 -3 -18 -6 -126 -6 -240 l0
-208 -52 -11 c-91 -20 -157 -72 -200 -160 -21 -43 -23 -61 -26 -290 -4 -272 2
-311 59 -352 61 -43 166 -18 200 48 10 21 15 85 17 255 l3 227 52 11 c111 24
197 112 218 224 6 34 9 152 7 284 -3 221 -4 228 -27 259 -32 42 -87 64 -144
56z"/>
<path d="M9535 10910 c-205 -29 -399 -165 -492 -345 -80 -155 -76 -114 -80
-903 l-4 -703 698 3 c781 4 742 1 901 79 158 77 287 238 339 419 16 58 18 108
18 480 0 373 -2 422 -18 480 -54 189 -175 338 -342 421 -144 71 -146 72 -575
75 -212 1 -412 -2 -445 -6z m810 -294 c28 -7 65 -21 84 -31 61 -31 137 -112
167 -178 l29 -62 0 -405 0 -405 -29 -63 c-37 -80 -122 -161 -203 -194 -58 -23
-58 -23 -601 -26 l-543 -3 3 548 3 548 29 62 c46 99 152 188 253 212 64 15
750 13 808 -3z"/>
<path d="M9740 10350 c-47 -4 -99 -14 -116 -23 -40 -21 -82 -70 -90 -105 -3
-15 -8 -33 -10 -40 -2 -8 3 -68 12 -135 16 -123 14 -346 -5 -460 -6 -34 -4
-50 5 -57 17 -15 624 -4 678 12 23 7 59 30 83 54 59 60 67 106 61 379 -4 179
-8 228 -23 263 -21 51 -63 88 -113 101 -50 12 -377 20 -482 11z"/>
<path d="M5149 10630 c-45 -13 -77 -40 -93 -80 -21 -53 -11 -104 29 -145 104
-103 273 9 219 145 -25 63 -93 98 -155 80z"/>
<path d="M7949 10630 c-45 -13 -77 -40 -93 -80 -21 -53 -11 -104 29 -145 104
-103 273 9 219 145 -25 63 -93 98 -155 80z"/>
<path d="M5707 10353 c-40 -6 -93 -63 -100 -108 -14 -84 51 -158 138 -158 54
0 98 30 119 83 40 101 -43 199 -157 183z"/>
<path d="M7655 10345 c-46 -16 -80 -54 -89 -98 -3 -16 -6 -123 -6 -238 l0
-209 -207 0 c-120 0 -225 -5 -247 -11 -81 -22 -120 -102 -89 -180 25 -64 61
-83 170 -87 l93 -4 0 -214 c0 -245 7 -278 67 -315 47 -29 110 -29 150 -1 43
30 63 88 63 177 l0 75 140 0 140 0 0 -75 c0 -95 20 -147 67 -176 75 -47 165
-19 197 61 18 46 21 160 6 240 -21 109 -107 197 -217 220 l-52 11 -3 372 c-3
340 -5 374 -21 399 -38 55 -98 75 -162 53z"/>
<path d="M4029 10070 c-45 -13 -77 -40 -93 -80 -21 -53 -11 -104 29 -145 104
-103 273 9 219 145 -25 63 -93 98 -155 80z"/>
<path d="M5149 10070 c-46 -13 -77 -40 -93 -81 -13 -32 -16 -81 -16 -254 l0
-215 -140 0 -140 0 -5 25 c-3 14 -8 37 -11 53 -17 81 -112 170 -204 191 -59
14 -185 14 -234 0 -81 -22 -120 -102 -89 -180 25 -64 61 -83 170 -87 l93 -4 0
-278 0 -278 -93 -4 c-109 -4 -145 -23 -170 -87 -21 -51 -12 -101 23 -139 33
-37 83 -52 173 -52 l67 0 0 -419 0 -420 -53 -11 c-103 -21 -195 -111 -216
-211 -6 -28 -11 -115 -11 -193 0 -153 -1 -156 -50 -156 -33 0 -105 -37 -141
-72 -60 -58 -82 -117 -87 -235 -5 -115 11 -179 51 -206 33 -22 126 -28 160
-10 55 28 66 76 73 316 l7 217 786 2 786 3 31 22 c66 47 77 143 24 201 -33 37
-83 52 -172 52 l-67 0 -3 229 c-3 251 -4 255 -70 304 -52 38 -145 18 -184 -40
-17 -25 -19 -52 -22 -260 l-3 -233 -280 0 -279 0 0 559 0 559 93 4 c99 4 131
17 162 65 22 32 23 99 2 139 -27 53 -61 68 -164 72 l-93 4 0 139 0 139 140 0
140 0 0 -75 c0 -132 49 -198 145 -198 89 0 135 68 135 198 l0 75 139 0 139 0
4 -235 c4 -281 3 -280 89 -242 30 13 84 37 122 52 l67 28 0 199 0 198 139 0
139 0 4 -172 c5 -196 16 -233 84 -302 66 -65 110 -79 254 -80 136 -1 160 6
195 61 22 32 23 99 2 139 -27 53 -61 68 -164 72 l-93 4 0 279 0 279 77 0 c131
0 197 49 195 146 0 47 -20 84 -60 111 -24 16 -52 18 -292 18 -261 0 -266 0
-314 -24 -85 -42 -143 -119 -160 -213 l-7 -38 -279 0 -279 0 -3 228 c-2 191
-6 232 -20 258 -29 53 -93 80 -149 64z"/>
<path d="M2907 9793 c-40 -6 -93 -63 -100 -108 -14 -84 51 -158 138 -158 54 0
98 30 119 83 40 101 -43 199 -157 183z"/>
<path d="M3735 9785 c-73 -25 -95 -71 -95 -196 l0 -68 -232 -3 c-223 -3 -234
-4 -264 -25 -66 -47 -77 -143 -24 -201 33 -37 83 -52 173 -52 l67 0 0 -75 c0
-132 49 -198 145 -198 89 0 135 68 135 198 l0 75 140 0 140 0 0 -75 c0 -95 20
-147 67 -176 75 -47 165 -19 197 61 18 46 21 160 6 240 -21 109 -107 197 -217
220 l-51 11 -4 92 c-3 66 -9 100 -22 119 -36 55 -97 75 -161 53z"/>
<path d="M6829 9510 c-91 -26 -109 -72 -109 -270 0 -175 11 -217 67 -251 77
-48 166 -18 198 65 24 61 18 345 -7 392 -29 53 -93 80 -149 64z"/>
<path d="M2907 9233 c-37 -6 -92 -63 -101 -103 -3 -18 -6 -126 -6 -241 l0
-209 -209 0 c-115 0 -223 -3 -241 -6 -18 -4 -47 -22 -65 -39 -42 -43 -51 -94
-26 -150 26 -60 82 -85 184 -85 l77 0 0 -140 0 -140 -69 0 c-98 0 -129 -9
-166 -45 -66 -67 -48 -172 37 -214 41 -19 60 -21 261 -21 l217 0 0 -140 0
-140 -700 0 -700 0 -5 25 c-3 14 -8 37 -11 53 -10 47 -63 120 -112 151 -72 46
-124 53 -384 49 -228 -3 -234 -4 -265 -27 -68 -51 -77 -147 -18 -206 37 -36
68 -45 165 -45 l68 0 12 -52 c22 -106 107 -193 210 -217 25 -6 111 -11 193
-11 l147 0 0 -147 c0 -82 5 -168 11 -193 24 -103 111 -188 217 -210 l52 -12 0
-139 0 -139 -67 0 c-89 0 -141 -15 -174 -51 -52 -56 -40 -155 24 -201 25 -18
48 -23 124 -26 l93 -4 0 -278 0 -279 -53 -11 c-105 -21 -196 -111 -217 -216
l-11 -54 -348 0 c-192 0 -363 -3 -381 -6 -18 -4 -47 -22 -65 -39 -42 -43 -51
-94 -26 -150 26 -60 82 -85 184 -85 l77 0 0 -147 c0 -82 5 -168 11 -193 24
-103 111 -188 217 -210 45 -10 53 -15 57 -38 29 -143 104 -218 247 -247 23 -4
28 -12 38 -57 23 -109 109 -195 218 -218 l52 -12 0 -278 0 -279 -53 -11 c-103
-21 -195 -111 -216 -211 -16 -75 -14 -202 5 -249 32 -79 122 -107 196 -62 47
29 60 62 66 163 l4 87 172 4 c194 5 231 16 300 84 39 39 76 110 76 144 0 51
-8 50 291 50 l279 0 0 -425 c0 -262 4 -443 11 -474 12 -55 60 -130 107 -165
29 -21 74 -38 133 -50 26 -6 27 -8 31 -98 4 -108 24 -146 90 -173 50 -20 110
-6 148 36 32 33 40 66 40 159 l0 68 93 4 c109 4 145 23 170 87 31 77 -9 158
-89 180 -22 6 -129 11 -246 11 l-208 0 0 140 0 140 420 0 420 0 0 -215 c0
-246 7 -279 67 -316 47 -29 110 -29 150 -1 64 45 63 36 63 737 l0 635 139 0
139 0 4 -173 c4 -145 8 -179 25 -217 26 -57 85 -116 143 -144 44 -20 58 -21
450 -21 375 0 407 1 432 18 59 40 78 119 45 183 -27 53 -61 68 -164 72 l-93 4
0 138 c0 75 -5 161 -10 190 -21 109 -107 197 -218 220 l-52 12 0 139 0 139
-140 0 -140 0 0 -140 0 -140 -139 0 c-149 0 -151 1 -151 53 -1 65 -81 165
-159 199 -62 27 -160 27 -221 0 -57 -25 -117 -84 -144 -142 -20 -43 -21 -61
-24 -497 l-3 -453 -140 0 -139 0 0 419 c0 239 -4 441 -10 471 -21 109 -107
197 -217 220 l-51 11 -4 87 c-5 101 -23 144 -71 168 -75 39 -161 9 -191 -66
-18 -47 -21 -180 -5 -250 24 -103 111 -188 217 -210 l52 -12 0 -419 0 -419
-139 0 -139 0 -4 173 c-3 156 -6 176 -27 221 -30 61 -76 107 -137 137 -48 24
-55 24 -361 27 -347 4 -314 -4 -328 75 -4 23 -13 40 -23 43 -9 3 -33 14 -52
24 -19 10 -55 23 -79 30 -44 12 -120 72 -125 100 -2 8 -6 32 -10 52 -6 26 -3
54 9 91 14 46 16 88 13 273 -3 207 -4 222 -27 268 -30 61 -76 107 -137 137
-45 22 -64 24 -221 27 l-173 4 0 138 0 138 173 4 c157 3 176 5 221 27 61 30
107 76 137 137 24 48 24 55 27 361 l4 313 26 5 c144 29 218 103 247 248 l5 27
288 0 c161 0 307 5 332 11 104 24 190 113 210 217 27 146 -68 289 -215 322
-54 12 -64 22 -65 60 -1 68 -79 167 -159 203 -39 17 -72 21 -218 25 l-173 4 0
138 0 139 313 3 c306 3 313 3 361 27 61 30 107 76 137 137 24 48 24 55 27 360
l3 312 92 4 c99 4 131 17 162 65 22 32 23 99 2 139 -27 53 -61 68 -164 72
l-92 4 -3 372 -3 371 -24 32 c-32 42 -87 64 -144 56z m-387 -2653 l0 -140
-280 0 -280 0 0 140 0 140 280 0 280 0 0 -140z m2520 -3080 l0 -140 -140 0
-140 0 0 140 0 140 140 0 140 0 0 -140z"/>
<path d="M8507 9233 c-37 -6 -92 -63 -101 -103 -3 -18 -6 -63 -6 -101 l0 -68
-53 -11 c-105 -21 -196 -111 -217 -216 -10 -47 -15 -55 -38 -59 -146 -29 -217
-100 -247 -247 -4 -23 -12 -28 -58 -38 -103 -21 -195 -111 -216 -211 -6 -29
-11 -171 -11 -334 l0 -283 -312 -4 c-293 -3 -316 -5 -358 -25 -86 -40 -150
-124 -163 -215 l-6 -38 274 0 c252 0 274 -1 278 -17 4 -17 5 -17 6 0 1 16 35
17 560 17 l559 0 4 -172 c3 -156 5 -178 26 -219 42 -85 137 -159 205 -159 36
0 49 -15 58 -65 19 -104 111 -194 217 -215 149 -28 294 71 322 220 5 29 10
115 10 191 l0 139 140 0 140 0 0 -75 c0 -95 20 -147 67 -176 75 -47 165 -19
197 61 18 46 21 160 6 240 -20 108 -106 196 -215 220 -54 12 -64 22 -65 60 -1
68 -78 166 -159 203 -43 20 -66 22 -358 25 l-313 4 0 139 0 139 28 5 c96 19
154 55 199 122 42 62 53 123 53 293 l0 138 93 4 c109 4 145 23 170 87 21 51
12 101 -23 139 -38 42 -95 55 -211 50 -146 -7 -226 -54 -280 -165 -20 -43 -23
-66 -27 -221 l-4 -172 -27 -5 c-145 -29 -215 -100 -246 -247 l-5 -28 -280 0
-280 0 0 140 0 140 25 5 c14 3 37 8 53 11 83 17 174 116 191 209 9 50 22 65
59 65 35 0 111 40 148 78 39 40 74 108 74 143 0 38 14 50 65 60 66 12 138 61
174 118 39 60 54 140 49 251 -3 70 -8 91 -27 117 -32 42 -87 64 -144 56z m453
-2093 l0 -140 -140 0 -140 0 0 140 0 140 140 0 140 0 0 -140z"/>
<path d="M1350 8671 c-91 -20 -166 -80 -202 -159 -22 -49 -35 -192 -24 -266
14 -92 102 -143 187 -109 64 25 83 61 87 170 l4 93 76 0 c130 0 196 50 194
146 0 47 -21 84 -60 110 -21 14 -50 19 -127 21 -55 1 -116 -2 -135 -6z"/>
<path d="M3735 8665 c-75 -26 -108 -101 -78 -176 20 -52 62 -81 117 -81 84 -2
142 59 139 144 -4 89 -89 143 -178 113z"/>
<path d="M9627 8673 c-40 -6 -93 -63 -100 -108 -14 -84 51 -158 138 -158 54 0
98 30 119 83 40 101 -43 199 -157 183z"/>
<path d="M1785 8392 c-102 -35 -132 -154 -59 -228 42 -41 77 -47 270 -42 124
2 154 6 176 21 81 55 81 179 1 233 -24 17 -49 19 -198 21 -93 1 -179 -1 -190
-5z"/>
<path d="M4029 8390 c-47 -14 -78 -41 -94 -85 -22 -56 -14 -78 36 -100 22 -10
51 -31 64 -47 26 -31 52 -35 94 -14 106 55 76 227 -44 248 -16 3 -42 2 -56 -2z"/>
<path d="M5149 8390 c-45 -13 -77 -40 -93 -80 -21 -53 -11 -104 29 -145 104
-103 273 9 219 145 -25 63 -93 98 -155 80z"/>
<path d="M6550 8392 c-64 -11 -116 -89 -103 -154 15 -79 91 -127 165 -107 90
24 127 114 82 201 -22 42 -88 70 -144 60z"/>
<path d="M7110 8392 c-72 -12 -110 -80 -110 -197 l0 -75 -69 0 c-98 0 -129 -9
-166 -45 -67 -68 -48 -172 40 -215 43 -21 57 -22 153 -18 122 6 181 27 238 86
64 66 79 112 79 247 0 96 -4 126 -18 152 -25 47 -90 75 -147 65z"/>
<path d="M9350 8392 c-40 -7 -77 -39 -94 -82 -23 -58 -23 -322 0 -380 32 -79
122 -107 197 -61 55 34 62 63 62 256 0 144 -3 175 -18 202 -25 47 -90 75 -147
65z"/>
<path d="M10010 8387 c-95 -27 -179 -114 -199 -208 -6 -28 -11 -114 -11 -193
l0 -144 -93 -4 c-77 -3 -97 -7 -124 -27 -68 -51 -77 -147 -18 -206 37 -36 68
-45 166 -45 l69 0 0 -75 c0 -130 45 -196 134 -197 52 -1 107 29 126 69 7 16
15 67 18 116 l4 87 139 0 139 0 0 -139 c0 -147 -1 -151 -50 -151 -33 0 -105
-37 -141 -72 -111 -108 -112 -280 -2 -393 103 -106 285 -104 389 3 37 39 74
107 74 139 0 47 9 53 79 53 87 0 139 15 172 51 52 56 40 155 -24 201 -25 18
-48 23 -124 26 l-93 4 0 139 0 139 68 0 c88 0 140 15 173 51 52 56 40 155 -25
202 -31 22 -36 22 -403 25 l-373 3 0 139 0 140 348 0 c220 0 361 4 386 11 111
31 136 175 42 242 -31 22 -35 22 -416 24 -281 2 -397 -1 -430 -10z"/>
<path d="M1495 8105 c-75 -26 -108 -101 -78 -176 20 -52 62 -81 117 -81 84 -2
142 59 139 144 -4 89 -89 143 -178 113z"/>
<path d="M6096 8109 c-80 -19 -147 -76 -187 -158 -20 -40 -23 -62 -24 -171 0
-117 2 -127 24 -157 34 -46 91 -66 143 -52 49 13 93 56 102 100 3 17 6 62 6
99 l0 68 93 4 c109 4 145 23 170 87 31 77 -9 158 -89 180 -46 13 -183 13 -238
0z"/>
<path d="M3467 7553 c-37 -6 -92 -63 -101 -103 -3 -18 -6 -94 -6 -170 0 -170
5 -194 45 -235 59 -59 159 -50 208 19 21 29 22 40 22 216 0 180 -1 186 -24
217 -32 42 -87 64 -144 56z"/>
<path d="M669 7270 c-46 -13 -77 -40 -93 -81 -14 -35 -16 -125 -16 -749 0
-792 -2 -769 67 -811 47 -29 110 -29 150 -1 55 39 63 78 63 317 l0 215 77 0
c131 0 197 49 195 146 -1 90 -51 126 -179 132 l-92 4 -3 367 c-3 322 -5 370
-20 397 -29 53 -93 80 -149 64z"/>
<path d="M5588 7150 c-315 -36 -623 -192 -847 -426 -190 -199 -310 -425 -367
-694 -27 -128 -26 -430 3 -561 25 -109 59 -212 104 -309 l31 -67 -111 -338
c-61 -187 -109 -340 -108 -342 2 -1 19 2 38 6 19 5 177 39 352 77 l318 67 105
-52 c139 -69 206 -93 349 -127 109 -26 137 -28 305 -28 165 0 197 3 296 26
339 80 624 264 825 531 185 247 280 531 280 840 0 227 -47 422 -151 632 -189
380 -543 653 -965 744 -113 25 -336 35 -457 21z m327 -435 c206 -33 388 -129
536 -282 127 -130 211 -280 255 -453 29 -115 27 -366 -4 -475 -24 -84 -87
-226 -120 -273 l-20 -27 49 -159 c27 -88 47 -161 45 -163 -2 -2 -78 14 -170
35 l-166 38 -73 -43 c-300 -178 -682 -177 -989 4 -171 101 -340 298 -409 477
-140 361 -66 751 195 1025 230 241 547 349 871 296z"/>
<path d="M5506 6019 c-94 -15 -161 -98 -161 -199 0 -64 20 -108 73 -165 317
-340 304 -327 325 -308 77 69 332 352 348 387 33 73 20 161 -33 222 -63 71
-178 89 -261 40 -26 -14 -50 -34 -56 -43 -8 -15 -12 -14 -41 11 -64 54 -114
68 -194 55z"/>
<path d="M7655 6985 c-75 -26 -108 -101 -78 -176 20 -52 62 -81 117 -81 84 -2
142 59 139 144 -4 89 -89 143 -178 113z"/>
<path d="M3465 6712 c-102 -36 -132 -154 -60 -227 37 -36 68 -45 166 -45 l69
0 0 -139 0 -139 -172 -4 c-158 -3 -177 -5 -221 -27 -60 -29 -109 -79 -139
-140 -22 -44 -23 -57 -26 -358 l-3 -313 -139 0 -138 0 -4 173 c-3 147 -7 179
-25 217 -27 59 -85 117 -142 142 -52 22 -191 35 -265 24 -135 -21 -166 -196
-44 -255 34 -16 63 -21 121 -21 l77 0 0 -140 0 -140 -69 0 c-98 0 -129 -9
-166 -45 -42 -43 -51 -94 -26 -150 26 -59 82 -85 183 -85 l76 0 12 -52 c41
-192 256 -283 421 -177 49 31 103 104 113 152 3 15 8 38 11 52 l5 25 140 0
140 0 0 -215 c0 -246 7 -279 67 -316 47 -29 110 -29 150 -1 55 39 63 78 63
316 0 117 -5 237 -10 266 -21 109 -107 197 -218 220 l-52 12 0 138 0 138 52
12 c108 23 198 111 217 215 9 50 22 65 58 65 32 0 104 34 135 64 l27 26 1 287
c1 159 3 300 5 316 4 34 -34 75 -102 107 -39 18 -69 23 -158 26 -60 2 -119 0
-130 -4z"/>
<path d="M7945 6712 c-102 -36 -132 -154 -60 -227 37 -36 68 -45 166 -45 l69
0 0 -280 0 -280 -139 0 -140 0 -3 233 c-3 252 -6 264 -65 302 -32 22 -99 23
-139 2 -53 -27 -68 -61 -72 -163 l-4 -92 -92 -4 c-76 -3 -96 -8 -123 -27 -68
-51 -77 -147 -18 -206 37 -36 68 -45 165 -45 l68 0 12 -52 c23 -108 107 -194
215 -218 53 -12 65 -22 65 -57 0 -37 36 -107 76 -147 54 -54 115 -78 194 -78
79 0 140 24 194 78 40 40 76 110 76 147 0 39 13 44 106 49 106 5 142 24 167
87 21 51 12 101 -23 139 -33 37 -83 52 -172 52 l-68 0 0 139 0 139 93 4 c109
4 145 23 170 87 21 51 12 101 -23 139 -33 37 -83 52 -171 52 -70 0 -79 6 -79
53 0 32 -37 101 -77 142 -57 58 -110 77 -238 81 -60 2 -119 0 -130 -4z"/>
<path d="M10016 6429 c-80 -19 -147 -76 -187 -158 -20 -40 -23 -62 -24 -171 0
-117 2 -127 24 -157 34 -46 91 -66 143 -52 49 13 93 56 102 100 3 17 6 62 6
99 l0 68 93 4 c109 4 145 23 170 87 31 77 -9 158 -89 180 -46 13 -183 13 -238
0z"/>
<path d="M10747 6433 c-37 -6 -92 -63 -101 -103 -3 -18 -6 -126 -6 -241 l0
-209 -67 0 c-89 0 -141 -15 -174 -51 -52 -56 -40 -155 24 -201 25 -18 48 -23
124 -26 l93 -4 0 -348 c0 -191 3 -362 6 -380 9 -45 63 -96 109 -103 49 -8 109
17 138 57 l22 31 0 745 0 745 -24 32 c-32 42 -87 64 -144 56z"/>
<path d="M1229 6150 c-45 -13 -77 -40 -93 -80 -21 -53 -11 -104 29 -145 104
-103 273 9 219 145 -25 63 -93 98 -155 80z"/>
<path d="M9472 5872 c-21 -6 -22 -9 -8 -27 32 -42 13 -137 -35 -182 -55 -50
-86 -55 -379 -62 -264 -6 -276 -7 -306 -28 -66 -47 -77 -143 -24 -201 44 -48
86 -54 349 -50 213 4 240 6 281 25 81 37 160 139 160 206 0 39 13 44 106 49
106 5 142 24 167 87 31 77 -9 158 -89 180 -42 12 -184 13 -222 3z"/>
<path d="M7272 5543 l-2 -223 73 0 c92 0 144 15 178 51 52 56 40 155 -24 201
-25 18 -48 23 -124 26 l-92 4 -4 82 c-1 44 -4 -19 -5 -141z"/>
<path d="M9910 5592 c-64 -11 -116 -89 -103 -154 15 -79 91 -127 165 -107 90
24 127 114 82 201 -22 42 -88 70 -144 60z"/>
<path d="M4202 5320 c0 -19 2 -27 5 -17 2 9 2 25 0 35 -3 9 -5 1 -5 -18z"/>
<path d="M8507 5313 c-40 -6 -93 -63 -100 -108 -14 -84 51 -158 138 -158 54 0
98 30 119 83 40 101 -43 199 -157 183z"/>
<path d="M9627 5313 c-40 -6 -93 -63 -100 -108 -14 -84 51 -158 138 -158 54 0
98 30 119 83 40 101 -43 199 -157 183z"/>
<path d="M2070 5032 c-64 -11 -116 -89 -103 -154 15 -79 91 -127 165 -107 90
24 127 114 82 201 -22 42 -88 70 -144 60z"/>
<path d="M4029 5030 c-91 -26 -109 -72 -109 -270 0 -175 11 -217 67 -251 77
-48 166 -18 198 65 24 61 18 345 -7 392 -29 53 -93 80 -149 64z"/>
<path d="M7270 4760 l0 -282 43 7 c143 23 240 134 240 275 0 141 -97 252 -240
275 l-43 7 0 -282z"/>
<path d="M7949 5030 c-46 -13 -77 -40 -93 -81 -13 -32 -16 -81 -16 -253 l0
-215 -53 -11 c-105 -21 -196 -111 -217 -216 l-11 -54 -560 0 -560 0 7 -37 c16
-93 75 -172 160 -214 45 -22 64 -24 222 -27 l172 -4 0 -279 0 -279 -145 0
c-79 0 -166 -5 -192 -10 -102 -22 -192 -113 -213 -216 l-11 -54 -68 0 c-98 0
-129 -9 -166 -45 -42 -43 -51 -94 -26 -150 26 -60 82 -85 184 -85 l77 0 0
-215 c0 -238 8 -278 61 -316 61 -43 168 -17 199 48 7 16 15 67 18 116 l4 87
67 0 c87 0 139 15 172 51 52 56 40 155 -24 201 -25 18 -48 23 -124 26 l-93 4
0 138 0 138 173 4 c195 5 232 16 301 84 68 69 79 106 84 302 4 172 4 172 28
177 13 3 36 8 52 11 74 15 171 112 186 187 3 15 8 38 11 52 l5 25 148 0 c81 0
167 5 192 11 103 24 197 121 208 215 4 35 -2 62 -24 117 -25 63 -29 85 -29
173 0 97 1 103 33 154 l34 54 -4 146 c-4 155 -13 192 -60 222 -30 20 -77 27
-109 18z"/>
<path d="M8790 5032 c-40 -7 -77 -39 -94 -82 -11 -29 -16 -73 -16 -154 0 -102
2 -115 21 -132 74 -67 87 -195 40 -385 -18 -70 -31 -144 -29 -165 4 -81 91
-162 196 -184 l52 -12 0 -68 c0 -97 9 -128 45 -165 41 -40 92 -50 146 -28 64
25 83 61 87 170 l4 93 138 0 c146 0 150 -1 150 -50 0 -34 37 -105 76 -144 69
-68 106 -79 302 -84 l172 -4 0 -74 c0 -131 49 -197 145 -197 88 0 135 68 135
197 l0 74 173 4 c156 3 176 6 221 27 61 30 107 76 137 137 21 44 24 63 24 174
0 116 -2 127 -24 157 -58 77 -174 75 -227 -5 -13 -19 -19 -53 -22 -119 l-4
-93 -279 0 -279 0 0 139 0 140 233 3 c252 3 264 6 302 65 22 32 23 99 2 139
-27 53 -61 68 -163 72 l-92 4 -4 92 c-3 76 -8 96 -27 123 -58 77 -174 75 -227
-5 -13 -19 -19 -53 -22 -119 l-4 -92 -52 -11 c-104 -21 -195 -112 -216 -216
l-11 -54 -280 0 -279 0 -5 28 c-4 15 -9 38 -11 52 -17 81 -115 170 -211 190
l-52 11 -3 227 c-3 194 -6 232 -21 259 -25 47 -90 75 -147 65z"/>
<path d="M9350 5032 c-64 -11 -116 -89 -103 -154 15 -79 91 -127 165 -107 90
24 127 114 82 201 -22 42 -88 70 -144 60z"/>
<path d="M2347 4753 c-40 -6 -93 -63 -100 -108 -25 -154 185 -220 253 -79 49
100 -36 204 -153 187z"/>
<path d="M9627 4753 c-40 -6 -93 -63 -100 -108 -14 -84 51 -158 138 -158 54 0
98 30 119 83 40 101 -43 199 -157 183z"/>
<path d="M669 4470 c-79 -23 -109 -78 -109 -200 0 -107 15 -169 54 -224 51
-72 96 -100 199 -121 l27 -5 0 -215 c0 -238 8 -278 61 -316 63 -45 171 -16
200 54 11 24 14 94 14 287 0 239 -1 258 -21 300 -39 82 -139 160 -207 160 -38
0 -44 13 -49 100 -5 91 -22 137 -60 162 -30 20 -77 27 -109 18z"/>
<path d="M3750 4472 c-64 -11 -116 -89 -103 -154 15 -79 91 -127 165 -107 90
24 127 114 82 201 -22 42 -88 70 -144 60z"/>
<path d="M5707 4193 c-40 -6 -93 -63 -100 -108 -14 -84 51 -158 138 -158 54 0
98 30 119 83 40 101 -43 199 -157 183z"/>
<path d="M6090 3906 c-57 -15 -113 -53 -149 -101 l-28 -38 23 -35 c23 -33 29
-67 24 -137 -1 -16 -20 -68 -43 -115 -40 -82 -42 -88 -39 -170 1 -47 5 -98 9
-115 15 -75 92 -124 165 -104 49 13 93 56 102 100 3 17 6 62 6 99 l0 68 52 12
c149 32 246 174 218 322 -20 104 -106 193 -210 217 -56 13 -74 13 -130 -3z"/>
<path d="M8225 3913 c-63 -17 -109 -91 -98 -156 7 -46 51 -93 99 -106 22 -6
69 -11 107 -11 l67 0 0 -75 c0 -132 49 -198 145 -198 88 0 135 68 135 197 0
104 -15 172 -51 228 -28 44 -96 96 -131 102 -7 1 -20 6 -28 11 -16 10 -214 17
-245 8z"/>
<path d="M7947 3633 c-37 -6 -92 -63 -101 -103 -3 -18 -6 -94 -6 -170 0 -170
5 -194 45 -235 59 -59 159 -50 208 19 21 29 22 40 22 216 0 180 -1 186 -24
217 -32 42 -87 64 -144 56z"/>
<path d="M669 3350 c-45 -13 -77 -40 -93 -80 -21 -53 -11 -104 29 -145 104
-103 273 9 219 145 -25 63 -93 98 -155 80z"/>
<path d="M8790 3352 c-72 -12 -110 -80 -110 -196 0 -77 -5 -86 -50 -86 -34 0
-105 -37 -144 -76 -69 -70 -79 -106 -84 -301 l-4 -173 -278 0 -278 0 -4 173
c-5 195 -14 231 -83 300 -53 54 -115 79 -195 79 -157 0 -273 -116 -273 -272 1
-79 25 -140 79 -194 40 -40 110 -76 147 -76 35 0 45 -12 57 -65 23 -104 108
-191 210 -214 25 -6 111 -11 192 -11 l146 0 12 -52 c20 -97 108 -195 190 -212
14 -2 37 -7 53 -11 l27 -5 0 -139 0 -139 -93 -4 c-109 -4 -145 -23 -170 -87
-31 -77 9 -158 89 -180 49 -14 155 -14 224 -1 98 19 197 107 214 193 3 15 8
38 11 52 l5 25 139 0 139 0 4 -172 c3 -194 13 -229 85 -303 65 -66 105 -78
301 -83 l172 -4 0 -68 c0 -96 9 -128 45 -165 41 -40 92 -50 146 -28 64 25 83
61 87 170 l4 93 76 0 c130 0 196 50 194 146 0 47 -20 84 -60 111 -25 16 -59
18 -399 21 l-373 3 0 139 0 138 313 4 c306 3 313 4 361 27 59 30 108 79 138
140 22 44 23 57 26 358 l4 313 24 5 c13 3 36 8 52 11 47 10 120 64 151 113
106 164 15 380 -176 421 l-51 11 -4 87 c-5 101 -23 144 -71 168 -44 23 -109
21 -146 -5 -41 -29 -61 -87 -61 -176 l0 -75 -419 0 -419 0 -4 88 c-3 55 -11
99 -21 119 -25 47 -89 76 -147 65z m730 -972 l0 -420 -420 0 -420 0 0 420 0
420 420 0 420 0 0 -420z"/>
<path d="M9067 2513 c-40 -6 -93 -63 -100 -108 -14 -84 51 -158 138 -158 54 0
98 30 119 83 40 101 -43 199 -157 183z"/>
<path d="M10465 3353 c-62 -17 -109 -91 -98 -156 7 -46 51 -93 99 -106 51 -14
298 -14 348 0 111 31 136 175 42 242 -29 20 -43 22 -201 24 -93 1 -179 -1
-190 -4z"/>
<path d="M2347 3073 c-40 -6 -93 -63 -100 -108 -14 -84 51 -158 138 -158 54 0
98 30 119 83 40 101 -43 199 -157 183z"/>
<path d="M5707 3073 c-40 -6 -93 -63 -100 -108 -14 -84 51 -158 138 -158 54 0
98 30 119 83 40 101 -43 199 -157 183z"/>
<path d="M4589 2790 c-45 -13 -77 -40 -93 -80 -21 -53 -11 -104 29 -145 104
-103 273 9 219 145 -25 63 -93 98 -155 80z"/>
<path d="M5990 2792 c-72 -12 -110 -80 -110 -196 0 -77 -5 -86 -50 -86 -64 0
-168 -82 -203 -160 -27 -60 -26 -159 1 -220 35 -80 137 -160 205 -160 35 0 45
-12 57 -65 23 -104 108 -191 210 -214 25 -6 146 -11 269 -11 208 0 228 2 268
21 96 46 104 176 15 236 -24 16 -54 18 -259 21 l-232 3 -3 367 c-3 329 -5 370
-21 399 -25 47 -90 75 -147 65z"/>
<path d="M10749 2790 c-91 -26 -109 -72 -109 -270 0 -175 11 -217 67 -251 77
-48 166 -18 198 65 24 61 18 345 -7 392 -29 53 -93 80 -149 64z"/>
<path d="M1138 2509 c-259 -34 -481 -230 -555 -489 -16 -58 -18 -108 -18 -480
0 -372 2 -422 18 -480 52 -181 179 -339 337 -418 153 -76 162 -77 620 -77 357
0 413 2 470 18 241 66 416 235 486 472 16 54 18 125 21 763 l4 702 -658 -1
c-362 -1 -688 -5 -725 -10z m1090 -826 l-3 -548 -29 -63 c-37 -80 -122 -161
-203 -194 -57 -23 -62 -23 -453 -23 -394 0 -395 0 -455 24 -80 32 -156 106
-198 190 l-32 66 0 405 0 405 29 62 c30 65 105 147 164 177 82 42 114 45 660
45 l523 1 -3 -547z"/>
<path d="M1565 1950 c-324 -6 -337 -8 -395 -78 -45 -55 -53 -115 -48 -367 5
-243 14 -283 70 -330 47 -40 96 -47 347 -48 255 -1 299 5 351 49 63 54 74 105
55 251 -17 129 -18 271 -1 411 8 71 8 106 1 110 -12 8 -13 8 -380 2z"/>
<path d="M5147 2513 c-40 -6 -93 -63 -100 -108 -14 -84 51 -158 138 -158 54 0
98 30 119 83 40 101 -43 199 -157 183z"/>
<path d="M4585 2232 c-102 -35 -132 -154 -59 -228 42 -41 77 -47 270 -42 124
2 154 6 176 21 81 55 81 179 1 233 -24 17 -49 19 -198 21 -93 1 -179 -1 -190
-5z"/>
<path d="M6825 2232 c-102 -35 -132 -154 -59 -228 42 -41 77 -47 270 -42 124
2 154 6 176 21 81 55 81 179 1 233 -24 17 -49 19 -198 21 -93 1 -179 -1 -190
-5z"/>
<path d="M3462 1954 c-13 -3 -38 -20 -56 -39 -43 -43 -52 -93 -27 -150 26 -59
82 -85 183 -85 l76 0 12 -52 c20 -97 108 -195 190 -212 14 -2 37 -7 51 -10
l27 -6 4 -172 c5 -196 16 -233 84 -302 69 -68 106 -79 301 -84 l172 -4 11 -53
c11 -55 57 -129 101 -164 14 -11 46 -28 70 -38 41 -17 89 -18 664 -18 l620 0
49 24 c60 30 108 79 138 140 22 43 23 58 23 251 0 232 -6 259 -80 333 -67 68
-107 80 -300 85 -111 3 -173 8 -177 16 -4 6 -8 22 -8 35 0 66 -80 168 -159
204 -38 17 -67 21 -171 21 -117 1 -127 -1 -157 -23 -68 -51 -77 -147 -18 -206
37 -36 68 -45 165 -45 l68 0 12 -52 c22 -106 107 -193 210 -217 25 -6 111 -11
193 -11 l147 0 0 -140 0 -140 -560 0 -560 0 -5 25 c-3 14 -8 37 -11 53 -10 47
-63 120 -112 151 -65 42 -115 50 -284 51 l-148 0 0 139 0 139 93 4 c99 4 131
17 162 65 36 55 15 151 -42 189 -25 17 -52 19 -258 22 -243 4 -244 4 -245 52
-1 38 -33 101 -75 143 -59 61 -112 79 -240 82 -60 2 -120 1 -133 -1z"/>
<path d="M7947 1953 c-40 -6 -93 -63 -100 -108 -14 -84 51 -158 138 -158 54 0
98 30 119 83 40 101 -43 199 -157 183z"/>
<path d="M3030 1671 c-135 -29 -224 -136 -224 -271 0 -294 396 -379 525 -113
16 33 22 64 22 113 0 79 -24 137 -80 195 -59 61 -162 93 -243 76z"/>
<path d="M6829 1670 c-79 -23 -109 -78 -109 -200 0 -107 15 -169 54 -224 51
-72 97 -100 197 -120 26 -6 27 -8 31 -98 3 -78 7 -98 27 -125 74 -100 228 -60
247 64 11 73 -2 216 -24 265 -36 80 -137 158 -205 158 -38 0 -44 13 -49 100
-5 91 -22 137 -60 162 -30 20 -77 27 -109 18z"/>
<path d="M7389 1670 c-45 -13 -77 -40 -93 -80 -21 -53 -11 -104 29 -145 104
-103 273 9 219 145 -25 63 -93 98 -155 80z"/>
<path d="M4855 1385 c-75 -26 -108 -101 -78 -176 20 -52 62 -81 117 -81 84 -2
142 59 139 144 -4 89 -89 143 -178 113z"/>
<path d="M10455 1385 c-75 -26 -108 -101 -78 -176 20 -52 62 -81 117 -81 84
-2 142 59 139 144 -4 89 -89 143 -178 113z"/>
<path d="M6550 1112 c-64 -11 -116 -89 -103 -154 15 -79 91 -127 165 -107 90
24 127 114 82 201 -22 42 -88 70 -144 60z"/>
<path d="M7670 1112 c-64 -11 -116 -89 -103 -154 15 -79 91 -127 165 -107 90
24 127 114 82 201 -22 42 -88 70 -144 60z"/>
<path d="M8230 1112 c-64 -11 -116 -89 -103 -154 15 -79 91 -127 165 -107 90
24 127 114 82 201 -22 42 -88 70 -144 60z"/>
<path d="M8790 1112 c-41 -7 -78 -40 -96 -87 -25 -66 -16 -233 16 -299 29 -61
75 -107 136 -137 44 -21 62 -24 174 -24 113 0 128 2 156 22 66 47 77 143 24
201 -33 37 -83 52 -171 52 l-67 0 -4 88 c-3 55 -11 99 -21 119 -25 47 -89 76
-147 65z"/>
<path d="M10189 1110 c-78 -22 -109 -78 -109 -195 l0 -75 -67 0 c-89 0 -141
-15 -174 -51 -52 -56 -40 -155 25 -202 l31 -22 465 0 465 0 31 22 c66 47 77
143 24 201 -41 45 -83 52 -311 52 l-207 0 -4 88 c-5 94 -21 139 -60 164 -30
20 -77 27 -109 18z"/>
<path d="M3462 833 c-37 -7 -88 -66 -95 -109 -10 -59 20 -116 75 -143 39 -19
61 -21 198 -21 136 0 159 2 197 21 96 46 104 176 15 236 -23 15 -51 18 -197
20 -93 0 -180 -1 -193 -4z"/>
<path d="M7387 833 c-40 -6 -93 -63 -100 -108 -14 -84 51 -158 138 -158 54 0
98 30 119 83 40 101 -43 199 -157 183z"/>
<path d="M7947 833 c-40 -6 -93 -63 -100 -108 -14 -84 51 -158 138 -158 54 0
98 30 119 83 40 101 -43 199 -157 183z"/>
</g>
</svg>
